<mxfile host="app.diagrams.net" modified="2021-05-21T09:38:45.976Z" agent="5.0 (Windows NT 10.0; Win64; x64) AppleWebKit/537.36 (KHTML, like Gecko) Chrome/90.0.4430.212 Safari/537.36 Edg/90.0.818.62" etag="p8hXDbv1O-aNv7Do_RV-" version="14.6.2" type="github">
  <diagram id="WdhfHRNgfEafMwIZ4pqM" name="Page-1">
    <mxGraphModel dx="1148" dy="713" grid="1" gridSize="10" guides="1" tooltips="1" connect="1" arrows="1" fold="1" page="1" pageScale="1" pageWidth="850" pageHeight="1100" math="0" shadow="0">
      <root>
        <mxCell id="0" />
        <mxCell id="1" parent="0" />
        <mxCell id="MaixqMWJUEoV6DAxjpzi-20" style="edgeStyle=orthogonalEdgeStyle;rounded=0;orthogonalLoop=1;jettySize=auto;html=1;" edge="1" parent="1" source="MaixqMWJUEoV6DAxjpzi-2" target="MaixqMWJUEoV6DAxjpzi-15">
          <mxGeometry relative="1" as="geometry">
            <Array as="points">
              <mxPoint x="610" y="255" />
              <mxPoint x="610" y="535" />
            </Array>
          </mxGeometry>
        </mxCell>
        <mxCell id="MaixqMWJUEoV6DAxjpzi-2" value="VPN服务器父进程" style="rounded=0;whiteSpace=wrap;html=1;" vertex="1" parent="1">
          <mxGeometry x="420" y="240" width="120" height="30" as="geometry" />
        </mxCell>
        <mxCell id="MaixqMWJUEoV6DAxjpzi-3" value="VPN客户端" style="rounded=0;whiteSpace=wrap;html=1;" vertex="1" parent="1">
          <mxGeometry x="150" y="240" width="80" height="30" as="geometry" />
        </mxCell>
        <mxCell id="MaixqMWJUEoV6DAxjpzi-4" value="" style="endArrow=classic;startArrow=classic;html=1;" edge="1" parent="1">
          <mxGeometry width="50" height="50" relative="1" as="geometry">
            <mxPoint x="235" y="300" as="sourcePoint" />
            <mxPoint x="415" y="300" as="targetPoint" />
          </mxGeometry>
        </mxCell>
        <mxCell id="MaixqMWJUEoV6DAxjpzi-5" value="1.建立一个tcp套接字" style="text;html=1;align=center;verticalAlign=middle;resizable=0;points=[];autosize=1;strokeColor=none;" vertex="1" parent="1">
          <mxGeometry x="260" y="280" width="130" height="20" as="geometry" />
        </mxCell>
        <mxCell id="MaixqMWJUEoV6DAxjpzi-6" value="" style="endArrow=classic;html=1;" edge="1" parent="1">
          <mxGeometry width="50" height="50" relative="1" as="geometry">
            <mxPoint x="237.5" y="330" as="sourcePoint" />
            <mxPoint x="410" y="380" as="targetPoint" />
          </mxGeometry>
        </mxCell>
        <mxCell id="MaixqMWJUEoV6DAxjpzi-7" value="2.发送登录的用户名和密码" style="text;html=1;align=center;verticalAlign=middle;resizable=0;points=[];autosize=1;strokeColor=none;rotation=15;" vertex="1" parent="1">
          <mxGeometry x="245" y="330" width="160" height="20" as="geometry" />
        </mxCell>
        <mxCell id="MaixqMWJUEoV6DAxjpzi-9" value="输入用户名&lt;br&gt;和密码" style="text;html=1;align=center;verticalAlign=middle;resizable=0;points=[];autosize=1;strokeColor=none;" vertex="1" parent="1">
          <mxGeometry x="160" y="320" width="80" height="30" as="geometry" />
        </mxCell>
        <mxCell id="MaixqMWJUEoV6DAxjpzi-10" value="对用户名和密码做hash运算，&lt;br&gt;与shadow文件中的摘要值对比" style="text;html=1;align=center;verticalAlign=middle;resizable=0;points=[];autosize=1;strokeColor=none;" vertex="1" parent="1">
          <mxGeometry x="420" y="380" width="180" height="30" as="geometry" />
        </mxCell>
        <mxCell id="MaixqMWJUEoV6DAxjpzi-11" value="" style="endArrow=classic;html=1;" edge="1" parent="1">
          <mxGeometry width="50" height="50" relative="1" as="geometry">
            <mxPoint x="410" y="410" as="sourcePoint" />
            <mxPoint x="230" y="460" as="targetPoint" />
          </mxGeometry>
        </mxCell>
        <mxCell id="MaixqMWJUEoV6DAxjpzi-12" value="3.验证成功（成功验证VPN客户端）" style="text;html=1;align=center;verticalAlign=middle;resizable=0;points=[];autosize=1;strokeColor=none;rotation=-15;" vertex="1" parent="1">
          <mxGeometry x="215" y="410" width="210" height="20" as="geometry" />
        </mxCell>
        <mxCell id="MaixqMWJUEoV6DAxjpzi-13" value="" style="endArrow=classic;startArrow=classic;html=1;" edge="1" parent="1">
          <mxGeometry width="50" height="50" relative="1" as="geometry">
            <mxPoint x="225" y="580" as="sourcePoint" />
            <mxPoint x="405" y="580" as="targetPoint" />
          </mxGeometry>
        </mxCell>
        <mxCell id="MaixqMWJUEoV6DAxjpzi-14" value="4.建立ssl会话（验证VPN服务器）" style="text;html=1;align=center;verticalAlign=middle;resizable=0;points=[];autosize=1;strokeColor=none;" vertex="1" parent="1">
          <mxGeometry x="220" y="550" width="200" height="20" as="geometry" />
        </mxCell>
        <mxCell id="MaixqMWJUEoV6DAxjpzi-15" value="VPN服务器子进程" style="rounded=0;whiteSpace=wrap;html=1;" vertex="1" parent="1">
          <mxGeometry x="420" y="520" width="120" height="30" as="geometry" />
        </mxCell>
        <mxCell id="MaixqMWJUEoV6DAxjpzi-17" value="" style="endArrow=classic;html=1;" edge="1" parent="1">
          <mxGeometry width="50" height="50" relative="1" as="geometry">
            <mxPoint x="230" y="480" as="sourcePoint" />
            <mxPoint x="402.5" y="530" as="targetPoint" />
          </mxGeometry>
        </mxCell>
        <mxCell id="MaixqMWJUEoV6DAxjpzi-18" value="VPN服务器&lt;br&gt;创建子进程" style="text;html=1;align=center;verticalAlign=middle;resizable=0;points=[];autosize=1;strokeColor=none;rounded=0;shadow=0;sketch=0;" vertex="1" parent="1">
          <mxGeometry x="610" y="380" width="80" height="30" as="geometry" />
        </mxCell>
      </root>
    </mxGraphModel>
  </diagram>
</mxfile>
